<svg width="40" height="40" viewBox="0 0 40 40" fill="none" xmlns="http://www.w3.org/2000/svg">
  <!-- Background -->
  <rect width="40" height="40" rx="8" fill="#F5F7FA"/>
  
  <!-- Table outline -->
  <rect x="6" y="6" width="28" height="28" rx="2" stroke="#34495E" stroke-width="2"/>
  
  <!-- Horizontal lines -->
  <line x1="6" y1="14" x2="34" y2="14" stroke="#34495E" stroke-width="2"/>
  <line x1="6" y1="22" x2="34" y2="22" stroke="#34495E" stroke-width="1"/>
  <line x1="6" y1="30" x2="34" y2="30" stroke="#34495E" stroke-width="1"/>
  
  <!-- Vertical lines -->
  <line x1="14" y1="6" x2="14" y2="34" stroke="#34495E" stroke-width="1"/>
  <line x1="22" y1="6" x2="22" y2="34" stroke="#34495E" stroke-width="1"/>
  
  <!-- Header text (simplified) -->
  <rect x="7" y="7" width="6" height="6" fill="#3498DB"/>
  <rect x="15" y="7" width="6" height="6" fill="#3498DB"/>
  <rect x="23" y="7" width="6" height="6" fill="#3498DB"/>
  
  <!-- Data cells (simplified) -->
  <rect x="7" y="15" width="6" height="6" fill="#ECF0F1"/>
  <rect x="15" y="15" width="6" height="6" fill="#ECF0F1"/>
  <rect x="23" y="15" width="6" height="6" fill="#ECF0F1"/>
  <rect x="7" y="23" width="6" height="6" fill="#ECF0F1"/>
  <rect x="15" y="23" width="6" height="6" fill="#ECF0F1"/>
  <rect x="23" y="23" width="6" height="6" fill="#ECF0F1"/>
</svg>