<svg width="40" height="40" viewBox="0 0 40 40" fill="none" xmlns="http://www.w3.org/2000/svg">
  <!-- Background -->
  <rect width="40" height="40" rx="8" fill="#F0F0F0"/>
  
  <!-- Brain outline -->
  <path d="M10 20C10 14.4772 14.4772 10 20 10C25.5228 10 30 14.4772 30 20C30 25.5228 25.5228 30 20 30C14.4772 30 10 25.5228 10 20Z" stroke="#6C5CE7" stroke-width="2"/>
  
  <!-- Neural network nodes -->
  <circle cx="20" cy="15" r="2" fill="#6C5CE7"/>
  <circle cx="15" cy="20" r="2" fill="#6C5CE7"/>
  <circle cx="25" cy="20" r="2" fill="#6C5CE7"/>
  <circle cx="17" cy="25" r="2" fill="#6C5CE7"/>
  <circle cx="23" cy="25" r="2" fill="#6C5CE7"/>
  
  <!-- Connections -->
  <line x1="20" y1="15" x2="15" y2="20" stroke="#6C5CE7"/>
  <line x1="20" y1="15" x2="25" y2="20" stroke="#6C5CE7"/>
  <line x1="15" y1="20" x2="17" y2="25" stroke="#6C5CE7"/>
  <line x1="25" y1="20" x2="23" y2="25" stroke="#6C5CE7"/>
  <line x1="15" y1="20" x2="23" y2="25" stroke="#6C5CE7"/>
  <line x1="25" y1="20" x2="17" y2="25" stroke="#6C5CE7"/>
  
  <!-- Gear symbol -->
  <path d="M32 20C32 19.4477 32.4477 19 33 19H35C35.5523 19 36 19.4477 36 20V22C36 22.5523 35.5523 23 35 23H33C32.4477 23 32 22.5523 32 22V20Z" fill="#FFA502"/>
  <path d="M34 17L34 19" stroke="#FFA502" stroke-width="2" stroke-linecap="round"/>
  <path d="M34 23L34 25" stroke="#FFA502" stroke-width="2" stroke-linecap="round"/>
</svg>